<?xml version="1.0" encoding="UTF-8"?>
<!DOCTYPE svg  PUBLIC '-//W3C//DTD SVG 1.1//EN'  'http://www.w3.org/Graphics/SVG/1.1/DTD/svg11.dtd'>
<svg width="792pt" height="468pt" version="1.1" viewBox="0 0 792 468" xmlns="http://www.w3.org/2000/svg" xmlns:xlink="http://www.w3.org/1999/xlink">
 <metadata>
  <rdf:RDF xmlns:cc="http://creativecommons.org/ns#" xmlns:dc="http://purl.org/dc/elements/1.1/" xmlns:rdf="http://www.w3.org/1999/02/22-rdf-syntax-ns#">
   <cc:Work>
    <dc:type rdf:resource="http://purl.org/dc/dcmitype/StillImage"/>
    <dc:date>2026-05-02T01:44:14.737338</dc:date>
    <dc:format>image/svg+xml</dc:format>
    <dc:creator>
     <cc:Agent>
      <dc:title>Matplotlib v3.10.8, https://matplotlib.org/</dc:title>
     </cc:Agent>
    </dc:creator>
   </cc:Work>
  </rdf:RDF>
 </metadata>
 <defs>
  <style type="text/css">*{stroke-linejoin: round; stroke-linecap: butt}</style>
 </defs>
 <g id="figure_1">
  <g id="patch_1">
   <path d="m0 468h792v-468h-792z" fill="#fff"/>
  </g>
  <g id="axes_1">
   <g id="patch_2">
    <path d="m55.862 426.04h725.34v-383.39h-725.34z" fill="#fff"/>
   </g>
   <g id="matplotlib.axis_1">
    <g id="xtick_1">
     <g id="line2d_1">
      <defs>
       <path id="m8cccc08e95" d="m0 0v3.5" stroke="#000" stroke-width=".8"/>
      </defs>
      <use x="114.193427" y="426.04" stroke="#000000" stroke-width=".8" xlink:href="#m8cccc08e95"/>
     </g>
     <g id="text_1">
      <!-- −5 -->
      <g transform="translate(106.82 440.64) scale(.1 -.1)">
       <defs>
        <path id="DejaVuSans-2212" transform="scale(.015625)" d="m678 2272h4006v-531h-4006v531z"/>
        <path id="DejaVuSans-35" transform="scale(.015625)" d="m691 4666h2478v-532h-1900v-1143q137 47 274 70 138 23 276 23 781 0 1237-428 457-428 457-1159 0-753-469-1171-469-417-1322-417-294 0-599 50-304 50-629 150v635q281-153 581-228t634-75q541 0 856 284 316 284 316 772 0 487-316 771-315 285-856 285-253 0-505-56-251-56-513-175v2344z"/>
       </defs>
       <use xlink:href="#DejaVuSans-2212"/>
       <use transform="translate(83.789)" xlink:href="#DejaVuSans-35"/>
      </g>
     </g>
    </g>
    <g id="xtick_2">
     <g id="line2d_2">
      <use x="241.00076" y="426.04" stroke="#000000" stroke-width=".8" xlink:href="#m8cccc08e95"/>
     </g>
     <g id="text_2">
      <!-- 0 -->
      <g transform="translate(237.82 440.64) scale(.1 -.1)">
       <defs>
        <path id="DejaVuSans-30" transform="scale(.015625)" d="m2034 4250q-487 0-733-480-245-479-245-1442 0-959 245-1439 246-480 733-480 491 0 736 480 246 480 246 1439 0 963-246 1442-245 480-736 480zm0 500q785 0 1199-621 414-620 414-1801 0-1178-414-1799-414-620-1199-620-784 0-1198 620-414 621-414 1799 0 1181 414 1801 414 621 1198 621z"/>
       </defs>
       <use xlink:href="#DejaVuSans-30"/>
      </g>
     </g>
    </g>
    <g id="xtick_3">
     <g id="line2d_3">
      <use x="367.808094" y="426.04" stroke="#000000" stroke-width=".8" xlink:href="#m8cccc08e95"/>
     </g>
     <g id="text_3">
      <!-- 5 -->
      <g transform="translate(364.63 440.64) scale(.1 -.1)">
       <use xlink:href="#DejaVuSans-35"/>
      </g>
     </g>
    </g>
    <g id="xtick_4">
     <g id="line2d_4">
      <use x="494.615427" y="426.04" stroke="#000000" stroke-width=".8" xlink:href="#m8cccc08e95"/>
     </g>
     <g id="text_4">
      <!-- 10 -->
      <g transform="translate(488.25 440.64) scale(.1 -.1)">
       <defs>
        <path id="DejaVuSans-31" transform="scale(.015625)" d="m794 531h1031v3560l-1122-225v575l1116 225h631v-4135h1031v-531h-2687v531z"/>
       </defs>
       <use xlink:href="#DejaVuSans-31"/>
       <use transform="translate(63.623)" xlink:href="#DejaVuSans-30"/>
      </g>
     </g>
    </g>
    <g id="xtick_5">
     <g id="line2d_5">
      <use x="621.42276" y="426.04" stroke="#000000" stroke-width=".8" xlink:href="#m8cccc08e95"/>
     </g>
     <g id="text_5">
      <!-- 15 -->
      <g transform="translate(615.06 440.64) scale(.1 -.1)">
       <use xlink:href="#DejaVuSans-31"/>
       <use transform="translate(63.623)" xlink:href="#DejaVuSans-35"/>
      </g>
     </g>
    </g>
    <g id="xtick_6">
     <g id="line2d_6">
      <use x="748.230093" y="426.04" stroke="#000000" stroke-width=".8" xlink:href="#m8cccc08e95"/>
     </g>
     <g id="text_6">
      <!-- 20 -->
      <g transform="translate(741.87 440.64) scale(.1 -.1)">
       <defs>
        <path id="DejaVuSans-32" transform="scale(.015625)" d="m1228 531h2203v-531h-2962v531q359 372 979 998 621 627 780 809 303 340 423 576 121 236 121 464 0 372-261 606-261 235-680 235-297 0-627-103-329-103-704-313v638q381 153 712 231 332 78 607 78 725 0 1156-363 431-362 431-968 0-288-108-546-107-257-392-607-78-91-497-524-418-433-1181-1211z"/>
       </defs>
       <use xlink:href="#DejaVuSans-32"/>
       <use transform="translate(63.623)" xlink:href="#DejaVuSans-30"/>
      </g>
     </g>
    </g>
    <g id="text_7">
     <!-- SNR (dB) -->
     <g transform="translate(396.05 454.32) scale(.1 -.1)">
      <defs>
       <path id="DejaVuSans-53" transform="scale(.015625)" d="m3425 4513v-616q-359 172-678 256-319 85-616 85-515 0-795-200t-280-569q0-310 186-468 186-157 705-254l381-78q706-135 1042-474t336-907q0-679-455-1029-454-350-1332-350-331 0-705 75-373 75-773 222v650q384-215 753-325 369-109 725-109 540 0 834 212 294 213 294 607 0 343-211 537t-692 291l-385 75q-706 140-1022 440-315 300-315 835 0 619 436 975t1201 356q329 0 669-60 341-59 697-177z"/>
       <path id="DejaVuSans-4e" transform="scale(.015625)" d="m628 4666h850l2069-3903v3903h612v-4666h-850l-2068 3903v-3903h-613v4666z"/>
       <path id="DejaVuSans-52" transform="scale(.015625)" d="m2841 2188q203-69 395-294t386-619l641-1275h-679l-596 1197q-232 469-449 622t-592 153h-688v-1972h-631v4666h1425q800 0 1194-335 394-334 394-1009 0-441-205-732-205-290-595-402zm-1582 1959v-1656h794q456 0 689 211t233 620-233 617-689 208h-794z"/>
       <path id="DejaVuSans-28" transform="scale(.015625)" d="m1984 4856q-418-718-622-1422-203-703-203-1425 0-721 205-1429t620-1424h-500q-468 735-701 1444t-233 1409q0 697 231 1403 232 707 703 1444h500z"/>
       <path id="DejaVuSans-64" transform="scale(.015625)" d="m2906 2969v1894h575v-4863h-575v525q-181-312-458-464-276-152-664-152-634 0-1033 506-398 507-398 1332t398 1331q399 506 1033 506 388 0 664-152 277-151 458-463zm-1959-1222q0-634 261-995t717-361 718 361q263 361 263 995t-263 995q-262 361-718 361t-717-361-261-995z"/>
       <path id="DejaVuSans-42" transform="scale(.015625)" d="m1259 2228v-1709h1013q509 0 754 211 246 211 246 645 0 438-246 645-245 208-754 208h-1013zm0 1919v-1406h935q462 0 688 173 227 174 227 530 0 353-227 528-226 175-688 175h-935zm-631 519h1613q722 0 1112-300 391-300 391-853 0-429-200-682t-588-315q466-100 724-418 258-317 258-792 0-625-425-966-425-340-1210-340h-1675v4666z"/>
       <path id="DejaVuSans-29" transform="scale(.015625)" d="m513 4856h500q468-737 701-1444 233-706 233-1403 0-700-233-1409t-701-1444h-500q415 716 620 1424t205 1429q0 722-205 1425-205 704-620 1422z"/>
      </defs>
      <use xlink:href="#DejaVuSans-53"/>
      <use transform="translate(63.477)" xlink:href="#DejaVuSans-4e"/>
      <use transform="translate(138.28)" xlink:href="#DejaVuSans-52"/>
      <use transform="translate(207.76)" xlink:href="#DejaVuSans-20"/>
      <use transform="translate(239.55)" xlink:href="#DejaVuSans-28"/>
      <use transform="translate(278.56)" xlink:href="#DejaVuSans-64"/>
      <use transform="translate(342.04)" xlink:href="#DejaVuSans-42"/>
      <use transform="translate(410.64)" xlink:href="#DejaVuSans-29"/>
     </g>
    </g>
   </g>
   <g id="matplotlib.axis_2">
    <g id="ytick_1">
     <g id="line2d_7">
      <defs>
       <path id="me1b4557a6d" d="m0 0h-3.5" stroke="#000" stroke-width=".8"/>
      </defs>
      <use x="55.862054" y="389.356022" stroke="#000000" stroke-width=".8" xlink:href="#me1b4557a6d"/>
     </g>
     <g id="text_8">
      <!-- $\mathdefault{10^{-3}}$ -->
      <g transform="translate(25.362 393.16) scale(.1 -.1)">
       <defs>
        <path id="DejaVuSans-33" transform="scale(.015625)" d="m2597 2516q453-97 707-404 255-306 255-756 0-690-475-1069-475-378-1350-378-293 0-604 58t-642 174v609q262-153 574-231 313-78 654-78 593 0 904 234t311 681q0 413-289 645-289 233-804 233h-544v519h569q465 0 712 186t247 536q0 359-255 551-254 193-729 193-260 0-557-57-297-56-653-174v562q360 100 674 150t592 50q719 0 1137-327 419-326 419-882 0-388-222-655t-631-370z"/>
       </defs>
       <use transform="translate(0 .76562)" xlink:href="#DejaVuSans-31"/>
       <use transform="translate(63.623 .76562)" xlink:href="#DejaVuSans-30"/>
       <use transform="translate(128.2 39.047) scale(.7)" xlink:href="#DejaVuSans-2212"/>
       <use transform="translate(186.86 39.047) scale(.7)" xlink:href="#DejaVuSans-33"/>
      </g>
     </g>
    </g>
    <g id="ytick_2">
     <g id="line2d_8">
      <use x="55.862054" y="267.494484" stroke="#000000" stroke-width=".8" xlink:href="#me1b4557a6d"/>
     </g>
     <g id="text_9">
      <!-- $\mathdefault{10^{-2}}$ -->
      <g transform="translate(25.362 271.29) scale(.1 -.1)">
       <use transform="translate(0 .76562)" xlink:href="#DejaVuSans-31"/>
       <use transform="translate(63.623 .76562)" xlink:href="#DejaVuSans-30"/>
       <use transform="translate(128.2 39.047) scale(.7)" xlink:href="#DejaVuSans-2212"/>
       <use transform="translate(186.86 39.047) scale(.7)" xlink:href="#DejaVuSans-32"/>
      </g>
     </g>
    </g>
    <g id="ytick_3">
     <g id="line2d_9">
      <use x="55.862054" y="145.632947" stroke="#000000" stroke-width=".8" xlink:href="#me1b4557a6d"/>
     </g>
     <g id="text_10">
      <!-- $\mathdefault{10^{-1}}$ -->
      <g transform="translate(25.362 149.43) scale(.1 -.1)">
       <use transform="translate(0 .68438)" xlink:href="#DejaVuSans-31"/>
       <use transform="translate(63.623 .68438)" xlink:href="#DejaVuSans-30"/>
       <use transform="translate(128.2 38.966) scale(.7)" xlink:href="#DejaVuSans-2212"/>
       <use transform="translate(186.86 38.966) scale(.7)" xlink:href="#DejaVuSans-31"/>
      </g>
     </g>
    </g>
    <g id="ytick_4">
     <g id="line2d_10">
      <defs>
       <path id="ma5cfcb8da4" d="m0 0h-2" stroke="#000" stroke-width=".6"/>
      </defs>
      <use x="55.862054" y="426.04" stroke="#000000" stroke-width=".6" xlink:href="#ma5cfcb8da4"/>
     </g>
    </g>
    <g id="ytick_5">
     <g id="line2d_11">
      <use x="55.862054" y="416.390852" stroke="#000000" stroke-width=".6" xlink:href="#ma5cfcb8da4"/>
     </g>
    </g>
    <g id="ytick_6">
     <g id="line2d_12">
      <use x="55.862054" y="408.232613" stroke="#000000" stroke-width=".6" xlink:href="#ma5cfcb8da4"/>
     </g>
    </g>
    <g id="ytick_7">
     <g id="line2d_13">
      <use x="55.862054" y="401.165625" stroke="#000000" stroke-width=".6" xlink:href="#ma5cfcb8da4"/>
     </g>
    </g>
    <g id="ytick_8">
     <g id="line2d_14">
      <use x="55.862054" y="394.9321" stroke="#000000" stroke-width=".6" xlink:href="#ma5cfcb8da4"/>
     </g>
    </g>
    <g id="ytick_9">
     <g id="line2d_15">
      <use x="55.862054" y="352.672044" stroke="#000000" stroke-width=".6" xlink:href="#ma5cfcb8da4"/>
     </g>
    </g>
    <g id="ytick_10">
     <g id="line2d_16">
      <use x="55.862054" y="331.213292" stroke="#000000" stroke-width=".6" xlink:href="#ma5cfcb8da4"/>
     </g>
    </g>
    <g id="ytick_11">
     <g id="line2d_17">
      <use x="55.862054" y="315.988066" stroke="#000000" stroke-width=".6" xlink:href="#ma5cfcb8da4"/>
     </g>
    </g>
    <g id="ytick_12">
     <g id="line2d_18">
      <use x="55.862054" y="304.178462" stroke="#000000" stroke-width=".6" xlink:href="#ma5cfcb8da4"/>
     </g>
    </g>
    <g id="ytick_13">
     <g id="line2d_19">
      <use x="55.862054" y="294.529314" stroke="#000000" stroke-width=".6" xlink:href="#ma5cfcb8da4"/>
     </g>
    </g>
    <g id="ytick_14">
     <g id="line2d_20">
      <use x="55.862054" y="286.371075" stroke="#000000" stroke-width=".6" xlink:href="#ma5cfcb8da4"/>
     </g>
    </g>
    <g id="ytick_15">
     <g id="line2d_21">
      <use x="55.862054" y="279.304087" stroke="#000000" stroke-width=".6" xlink:href="#ma5cfcb8da4"/>
     </g>
    </g>
    <g id="ytick_16">
     <g id="line2d_22">
      <use x="55.862054" y="273.070562" stroke="#000000" stroke-width=".6" xlink:href="#ma5cfcb8da4"/>
     </g>
    </g>
    <g id="ytick_17">
     <g id="line2d_23">
      <use x="55.862054" y="230.810506" stroke="#000000" stroke-width=".6" xlink:href="#ma5cfcb8da4"/>
     </g>
    </g>
    <g id="ytick_18">
     <g id="line2d_24">
      <use x="55.862054" y="209.351754" stroke="#000000" stroke-width=".6" xlink:href="#ma5cfcb8da4"/>
     </g>
    </g>
    <g id="ytick_19">
     <g id="line2d_25">
      <use x="55.862054" y="194.126528" stroke="#000000" stroke-width=".6" xlink:href="#ma5cfcb8da4"/>
     </g>
    </g>
    <g id="ytick_20">
     <g id="line2d_26">
      <use x="55.862054" y="182.316925" stroke="#000000" stroke-width=".6" xlink:href="#ma5cfcb8da4"/>
     </g>
    </g>
    <g id="ytick_21">
     <g id="line2d_27">
      <use x="55.862054" y="172.667776" stroke="#000000" stroke-width=".6" xlink:href="#ma5cfcb8da4"/>
     </g>
    </g>
    <g id="ytick_22">
     <g id="line2d_28">
      <use x="55.862054" y="164.509538" stroke="#000000" stroke-width=".6" xlink:href="#ma5cfcb8da4"/>
     </g>
    </g>
    <g id="ytick_23">
     <g id="line2d_29">
      <use x="55.862054" y="157.44255" stroke="#000000" stroke-width=".6" xlink:href="#ma5cfcb8da4"/>
     </g>
    </g>
    <g id="ytick_24">
     <g id="line2d_30">
      <use x="55.862054" y="151.209025" stroke="#000000" stroke-width=".6" xlink:href="#ma5cfcb8da4"/>
     </g>
    </g>
    <g id="ytick_25">
     <g id="line2d_31">
      <use x="55.862054" y="108.948968" stroke="#000000" stroke-width=".6" xlink:href="#ma5cfcb8da4"/>
     </g>
    </g>
    <g id="ytick_26">
     <g id="line2d_32">
      <use x="55.862054" y="87.490217" stroke="#000000" stroke-width=".6" xlink:href="#ma5cfcb8da4"/>
     </g>
    </g>
    <g id="ytick_27">
     <g id="line2d_33">
      <use x="55.862054" y="72.26499" stroke="#000000" stroke-width=".6" xlink:href="#ma5cfcb8da4"/>
     </g>
    </g>
    <g id="ytick_28">
     <g id="line2d_34">
      <use x="55.862054" y="60.455387" stroke="#000000" stroke-width=".6" xlink:href="#ma5cfcb8da4"/>
     </g>
    </g>
    <g id="ytick_29">
     <g id="line2d_35">
      <use x="55.862054" y="50.806239" stroke="#000000" stroke-width=".6" xlink:href="#ma5cfcb8da4"/>
     </g>
    </g>
    <g id="ytick_30">
     <g id="line2d_36">
      <use x="55.862054" y="42.648" stroke="#000000" stroke-width=".6" xlink:href="#ma5cfcb8da4"/>
     </g>
    </g>
    <g id="text_11">
     <!-- BER -->
     <g transform="translate(19.282 244.41) rotate(-90) scale(.1 -.1)">
      <defs>
       <path id="DejaVuSans-45" transform="scale(.015625)" d="m628 4666h2950v-532h-2319v-1381h2222v-531h-2222v-1691h2375v-531h-3006v4666z"/>
      </defs>
      <use xlink:href="#DejaVuSans-42"/>
      <use transform="translate(68.604)" xlink:href="#DejaVuSans-45"/>
      <use transform="translate(131.79)" xlink:href="#DejaVuSans-52"/>
     </g>
    </g>
   </g>
   <g id="line2d_37">
    <defs>
     <path id="m5eda04052c" d="m-3 3h6v-6h-6z" stroke="#808080"/>
    </defs>
   </g>
   <g id="line2d_38">
    <path d="m88.832 209.35 50.723 94.827 40.38 164.82" clip-path="url(#pc651465504)" fill="none" stroke="#4682b4" stroke-linecap="square" stroke-width="1.8"/>
    <defs>
     <path id="mff856e3de3" d="m0 3c0.79561 0 1.5587-0.3161 2.1213-0.87868 0.56258-0.56258 0.87868-1.3257 0.87868-2.1213s-0.3161-1.5587-0.87868-2.1213c-0.56258-0.56258-1.3257-0.87868-2.1213-0.87868s-1.5587 0.3161-2.1213 0.87868c-0.56258 0.56258-0.87868 1.3257-0.87868 2.1213s0.3161 1.5587 0.87868 2.1213c0.56258 0.56258 1.3257 0.87868 2.1213 0.87868z" stroke="#4682b4"/>
    </defs>
    <g clip-path="url(#pc651465504)" fill="#4682b4" stroke="#4682b4">
     <use x="88.831961" y="209.351754" xlink:href="#mff856e3de3"/>
     <use x="139.554894" y="304.178462" xlink:href="#mff856e3de3"/>
     <use x="190.277827" y="511.217559" xlink:href="#mff856e3de3"/>
     <use x="241.00076" y="511.217559" xlink:href="#mff856e3de3"/>
     <use x="291.723694" y="511.217559" xlink:href="#mff856e3de3"/>
     <use x="342.446627" y="511.217559" xlink:href="#mff856e3de3"/>
     <use x="393.16956" y="511.217559" xlink:href="#mff856e3de3"/>
     <use x="443.892494" y="511.217559" xlink:href="#mff856e3de3"/>
     <use x="494.615427" y="511.217559" xlink:href="#mff856e3de3"/>
     <use x="545.33836" y="511.217559" xlink:href="#mff856e3de3"/>
     <use x="596.061293" y="511.217559" xlink:href="#mff856e3de3"/>
     <use x="646.784227" y="511.217559" xlink:href="#mff856e3de3"/>
     <use x="697.50716" y="511.217559" xlink:href="#mff856e3de3"/>
     <use x="748.230093" y="511.217559" xlink:href="#mff856e3de3"/>
    </g>
   </g>
   <g id="line2d_39">
    <path d="m88.832 127.83 50.723 33.033 50.723 85.178 50.723 21.459 50.723 36.684 40.38 164.82" clip-path="url(#pc651465504)" fill="none" stroke="#ff8c00" stroke-linecap="square" stroke-width="1.8"/>
    <defs>
     <path id="m298b8a013a" d="m-0 4.2426 4.2426-4.2426-4.2426-4.2426-4.2426 4.2426z" stroke="#ff8c00"/>
    </defs>
    <g clip-path="url(#pc651465504)" fill="#ff8c00" stroke="#ff8c00">
     <use x="88.831961" y="127.825559" xlink:href="#m298b8a013a"/>
     <use x="139.554894" y="160.858173" xlink:href="#m298b8a013a"/>
     <use x="190.277827" y="246.035733" xlink:href="#m298b8a013a"/>
     <use x="241.00076" y="267.494484" xlink:href="#m298b8a013a"/>
     <use x="291.723694" y="304.178462" xlink:href="#m298b8a013a"/>
     <use x="342.446627" y="511.217559" xlink:href="#m298b8a013a"/>
     <use x="393.16956" y="511.217559" xlink:href="#m298b8a013a"/>
     <use x="443.892494" y="511.217559" xlink:href="#m298b8a013a"/>
     <use x="494.615427" y="511.217559" xlink:href="#m298b8a013a"/>
     <use x="545.33836" y="511.217559" xlink:href="#m298b8a013a"/>
     <use x="596.061293" y="511.217559" xlink:href="#m298b8a013a"/>
     <use x="646.784227" y="511.217559" xlink:href="#m298b8a013a"/>
     <use x="697.50716" y="511.217559" xlink:href="#m298b8a013a"/>
     <use x="748.230093" y="511.217559" xlink:href="#m298b8a013a"/>
    </g>
   </g>
   <g id="line2d_40">
    <path d="m55.862 267.49h725.34" clip-path="url(#pc651465504)" fill="none" stroke="#808080" stroke-dasharray="1,1.65"/>
   </g>
   <g id="line2d_41">
    <path d="m55.862 60.455h725.34" clip-path="url(#pc651465504)" fill="none" stroke="#f00" stroke-dasharray="4.44,1.92" stroke-width="1.2"/>
   </g>
   <g id="patch_3">
    <path d="m55.862 426.04v-383.39" fill="none" stroke="#000" stroke-linecap="square" stroke-width=".8"/>
   </g>
   <g id="patch_4">
    <path d="m781.2 426.04v-383.39" fill="none" stroke="#000" stroke-linecap="square" stroke-width=".8"/>
   </g>
   <g id="patch_5">
    <path d="m55.862 426.04h725.34" fill="none" stroke="#000" stroke-linecap="square" stroke-width=".8"/>
   </g>
   <g id="patch_6">
    <path d="m55.862 42.648h725.34" fill="none" stroke="#000" stroke-linecap="square" stroke-width=".8"/>
   </g>
   <g id="text_12">
    <!-- Comparação de Esquemas de Comunicação Caótica -->
    <g transform="translate(262.01 22.635) scale(.12 -.12)">
     <defs>
      <path id="DejaVuSans-43" transform="scale(.015625)" d="m4122 4306v-665q-319 297-680 443-361 147-767 147-800 0-1225-489t-425-1414q0-922 425-1411t1225-489q406 0 767 147t680 444v-660q-331-225-702-338-370-112-782-112-1060 0-1670 648-609 649-609 1771 0 1125 609 1773 610 649 1670 649 418 0 788-111 371-111 696-333z"/>
      <path id="DejaVuSans-6f" transform="scale(.015625)" d="m1959 3097q-462 0-731-361t-269-989 267-989q268-361 733-361 460 0 728 362 269 363 269 988 0 622-269 986-268 364-728 364zm0 487q750 0 1178-488 429-487 429-1349 0-859-429-1349-428-489-1178-489-753 0-1180 489-426 490-426 1349 0 862 426 1349 427 488 1180 488z"/>
      <path id="DejaVuSans-6d" transform="scale(.015625)" d="m3328 2828q216 388 516 572t706 184q547 0 844-383 297-382 297-1088v-2113h-578v2094q0 503-179 746-178 244-543 244-447 0-707-297-259-296-259-809v-1978h-578v2094q0 506-178 748t-550 242q-441 0-701-298-259-298-259-808v-1978h-578v3500h578v-544q197 322 472 475t653 153q382 0 649-194 267-193 395-562z"/>
      <path id="DejaVuSans-70" transform="scale(.015625)" d="m1159 525v-1856h-578v4831h578v-531q182 312 458 463 277 152 661 152 638 0 1036-506 399-506 399-1331t-399-1332q-398-506-1036-506-384 0-661 152-276 152-458 464zm1957 1222q0 634-261 995t-717 361q-457 0-718-361t-261-995 261-995 718-361q456 0 717 361t261 995z"/>
      <path id="DejaVuSans-61" transform="scale(.015625)" d="m2194 1759q-697 0-966-159t-269-544q0-306 202-486 202-179 548-179 479 0 768 339t289 901v128h-572zm1147 238v-1997h-575v531q-197-318-491-470t-719-152q-537 0-855 302-317 302-317 808 0 590 395 890 396 300 1180 300h807v57q0 397-261 614t-733 217q-300 0-585-72-284-72-546-216v532q315 122 612 182 297 61 578 61 760 0 1135-394 375-393 375-1193z"/>
      <path id="DejaVuSans-72" transform="scale(.015625)" d="m2631 2963q-97 56-211 82-114 27-251 27-488 0-749-317t-261-911v-1844h-578v3500h578v-544q182 319 472 473 291 155 707 155 59 0 131-8 72-7 159-23l3-590z"/>
      <path id="DejaVuSans-e7" transform="scale(.015625)" d="m3122 3366v-538q-244 135-489 202t-495 67q-560 0-870-355-309-354-309-995t309-996q310-354 870-354 250 0 495 67t489 202v-532q-241-112-499-168-257-57-548-57-791 0-1257 497-465 497-465 1341 0 856 470 1346 471 491 1290 491 265 0 518-55 253-54 491-163zm-811-3366q171-194 255-358 85-164 85-314 0-278-188-420-187-142-556-142-143 0-279 19-136 18-271 56v409q107-53 222-76 116-24 263-24 184 0 278 75t94 219q0 93-68 229-67 136-207 327h372z"/>
      <path id="DejaVuSans-e3" transform="scale(.015625)" d="m2194 1759q-697 0-966-159t-269-544q0-306 202-486 202-179 548-179 479 0 768 339t289 901v128h-572zm1147 238v-1997h-575v531q-197-318-491-470t-719-152q-537 0-855 302-317 302-317 808 0 590 395 890 396 300 1180 300h807v57q0 397-261 614t-733 217q-300 0-585-72-284-72-546-216v532q315 122 612 182 297 61 578 61 760 0 1135-394 375-393 375-1193zm-1497 2284-179 172q-68 63-120 92-51 30-92 30-119 0-175-114t-63-370h-390q6 422 165 651 160 230 444 230 119 0 219-44t216-147l178-172q68-62 120-92 52-29 92-29 119 0 175 114t63 370h390q-6-422-166-652-159-229-443-229-119 0-219 43-100 44-215 147z"/>
      <path id="DejaVuSans-65" transform="scale(.015625)" d="m3597 1894v-281h-2644q38-594 358-905t892-311q331 0 642 81t618 244v-544q-310-131-635-200t-659-69q-838 0-1327 487-489 488-489 1320 0 859 464 1363 464 505 1252 505 706 0 1117-455 411-454 411-1235zm-575 169q-6 471-264 752-258 282-683 282-481 0-770-272t-333-766l2050 4z"/>
      <path id="DejaVuSans-73" transform="scale(.015625)" d="m2834 3397v-544q-243 125-506 187-262 63-544 63-428 0-642-131t-214-394q0-200 153-314t616-217l197-44q612-131 870-370t258-667q0-488-386-773-386-284-1061-284-281 0-586 55t-642 164v594q319-166 628-249 309-82 613-82 406 0 624 139 219 139 219 392 0 234-158 359-157 125-692 241l-200 47q-534 112-772 345-237 233-237 639 0 494 350 762 350 269 994 269 318 0 599-47 282-46 519-140z"/>
      <path id="DejaVuSans-71" transform="scale(.015625)" d="m947 1747q0-634 261-995t717-361 718 361q263 361 263 995t-263 995q-262 361-718 361t-717-361-261-995zm1959-1222q-181-312-458-464-276-152-664-152-634 0-1033 506-398 507-398 1332t398 1331q399 506 1033 506 388 0 664-152 277-151 458-463v531h575v-4831h-575v1856z"/>
      <path id="DejaVuSans-75" transform="scale(.015625)" d="m544 1381v2119h575v-2097q0-497 193-746 194-248 582-248 465 0 735 297 271 297 271 810v1984h575v-3500h-575v538q-209-319-486-474-276-155-642-155-603 0-916 375-312 375-312 1097zm1447 2203z"/>
      <path id="DejaVuSans-6e" transform="scale(.015625)" d="m3513 2113v-2113h-575v2094q0 497-194 743-194 247-581 247-466 0-735-297-269-296-269-809v-1978h-578v3500h578v-544q207 316 486 472 280 156 646 156 603 0 912-373 310-373 310-1098z"/>
      <path id="DejaVuSans-69" transform="scale(.015625)" d="m603 3500h575v-3500h-575v3500zm0 1363h575v-729h-575v729z"/>
      <path id="DejaVuSans-63" transform="scale(.015625)" d="m3122 3366v-538q-244 135-489 202t-495 67q-560 0-870-355-309-354-309-995t309-996q310-354 870-354 250 0 495 67t489 202v-532q-241-112-499-168-257-57-548-57-791 0-1257 497-465 497-465 1341 0 856 470 1346 471 491 1290 491 265 0 518-55 253-54 491-163z"/>
      <path id="DejaVuSans-f3" transform="scale(.015625)" d="m1959 3097q-462 0-731-361t-269-989 267-989q268-361 733-361 460 0 728 362 269 363 269 988 0 622-269 986-268 364-728 364zm0 487q750 0 1178-488 429-487 429-1349 0-859-429-1349-428-489-1178-489-753 0-1180 489-426 490-426 1349 0 862 426 1349 427 488 1180 488zm435 1535h622l-1018-1175h-479l875 1175z"/>
      <path id="DejaVuSans-74" transform="scale(.015625)" d="m1172 4494v-994h1184v-447h-1184v-1900q0-428 117-550t477-122h590v-481h-590q-666 0-919 248-253 249-253 905v1900h-422v447h422v994h578z"/>
     </defs>
     <use xlink:href="#DejaVuSans-43"/>
     <use transform="translate(69.824)" xlink:href="#DejaVuSans-6f"/>
     <use transform="translate(131.01)" xlink:href="#DejaVuSans-6d"/>
     <use transform="translate(228.42)" xlink:href="#DejaVuSans-70"/>
     <use transform="translate(291.89)" xlink:href="#DejaVuSans-61"/>
     <use transform="translate(353.17)" xlink:href="#DejaVuSans-72"/>
     <use transform="translate(394.29)" xlink:href="#DejaVuSans-61"/>
     <use transform="translate(455.57)" xlink:href="#DejaVuSans-e7"/>
     <use transform="translate(510.55)" xlink:href="#DejaVuSans-e3"/>
     <use transform="translate(571.83)" xlink:href="#DejaVuSans-6f"/>
     <use transform="translate(633.01)" xlink:href="#DejaVuSans-20"/>
     <use transform="translate(664.79)" xlink:href="#DejaVuSans-64"/>
     <use transform="translate(728.27)" xlink:href="#DejaVuSans-65"/>
     <use transform="translate(789.79)" xlink:href="#DejaVuSans-20"/>
     <use transform="translate(821.58)" xlink:href="#DejaVuSans-45"/>
     <use transform="translate(884.77)" xlink:href="#DejaVuSans-73"/>
     <use transform="translate(936.87)" xlink:href="#DejaVuSans-71"/>
     <use transform="translate(1000.3)" xlink:href="#DejaVuSans-75"/>
     <use transform="translate(1063.7)" xlink:href="#DejaVuSans-65"/>
     <use transform="translate(1125.2)" xlink:href="#DejaVuSans-6d"/>
     <use transform="translate(1222.7)" xlink:href="#DejaVuSans-61"/>
     <use transform="translate(1283.9)" xlink:href="#DejaVuSans-73"/>
     <use transform="translate(1336)" xlink:href="#DejaVuSans-20"/>
     <use transform="translate(1367.8)" xlink:href="#DejaVuSans-64"/>
     <use transform="translate(1431.3)" xlink:href="#DejaVuSans-65"/>
     <use transform="translate(1492.8)" xlink:href="#DejaVuSans-20"/>
     <use transform="translate(1524.6)" xlink:href="#DejaVuSans-43"/>
     <use transform="translate(1594.4)" xlink:href="#DejaVuSans-6f"/>
     <use transform="translate(1655.6)" xlink:href="#DejaVuSans-6d"/>
     <use transform="translate(1753)" xlink:href="#DejaVuSans-75"/>
     <use transform="translate(1816.4)" xlink:href="#DejaVuSans-6e"/>
     <use transform="translate(1879.8)" xlink:href="#DejaVuSans-69"/>
     <use transform="translate(1907.6)" xlink:href="#DejaVuSans-63"/>
     <use transform="translate(1962.5)" xlink:href="#DejaVuSans-61"/>
     <use transform="translate(2023.8)" xlink:href="#DejaVuSans-e7"/>
     <use transform="translate(2078.8)" xlink:href="#DejaVuSans-e3"/>
     <use transform="translate(2140.1)" xlink:href="#DejaVuSans-6f"/>
     <use transform="translate(2201.3)" xlink:href="#DejaVuSans-20"/>
     <use transform="translate(2233.1)" xlink:href="#DejaVuSans-43"/>
     <use transform="translate(2302.9)" xlink:href="#DejaVuSans-61"/>
     <use transform="translate(2364.2)" xlink:href="#DejaVuSans-f3"/>
     <use transform="translate(2425.3)" xlink:href="#DejaVuSans-74"/>
     <use transform="translate(2464.6)" xlink:href="#DejaVuSans-69"/>
     <use transform="translate(2492.3)" xlink:href="#DejaVuSans-63"/>
     <use transform="translate(2547.3)" xlink:href="#DejaVuSans-61"/>
    </g>
    <!-- Hénon FIR AWGN  (β=64, 5 taps, ωc=0.9091) -->
    <g transform="translate(281.35 36.648) scale(.12 -.12)">
     <defs>
      <path id="DejaVuSans-48" transform="scale(.015625)" d="m628 4666h631v-1913h2294v1913h631v-4666h-631v2222h-2294v-2222h-631v4666z"/>
      <path id="DejaVuSans-e9" transform="scale(.015625)" d="m3597 1894v-281h-2644q38-594 358-905t892-311q331 0 642 81t618 244v-544q-310-131-635-200t-659-69q-838 0-1327 487-489 488-489 1320 0 859 464 1363 464 505 1252 505 706 0 1117-455 411-454 411-1235zm-575 169q-6 471-264 752-258 282-683 282-481 0-770-272t-333-766l2050 4zm-556 3056h622l-1018-1175h-479l875 1175z"/>
      <path id="DejaVuSans-46" transform="scale(.015625)" d="m628 4666h2681v-532h-2050v-1375h1850v-531h-1850v-2228h-631v4666z"/>
      <path id="DejaVuSans-49" transform="scale(.015625)" d="m628 4666h631v-4666h-631v4666z"/>
      <path id="DejaVuSans-41" transform="scale(.015625)" d="m2188 4044-857-2322h1716l-859 2322zm-357 622h716l1778-4666h-656l-425 1197h-2103l-425-1197h-666l1781 4666z"/>
      <path id="DejaVuSans-57" transform="scale(.015625)" d="m213 4666h637l981-3944 978 3944h710l981-3944 978 3944h641l-1172-4666h-794l-984 4050-994-4050h-794l-1168 4666z"/>
      <path id="DejaVuSans-47" transform="scale(.015625)" d="m3809 666v1253h-1031v519h1656v-2004q-365-259-806-392-440-133-940-133-1094 0-1712 639-617 640-617 1780 0 1144 617 1783 618 639 1712 639 456 0 867-113 411-112 758-331v-672q-350 297-744 447t-828 150q-857 0-1287-478-429-478-429-1425 0-944 429-1422 430-478 1287-478 334 0 596 58 263 58 472 180z"/>
      <path id="DejaVuSans-3b2" transform="scale(.015625)" d="m1178 216v-1547h-578v4809q0 1425 1331 1425 1357 0 1357-1203 0-856-538-1169 875-281 875-1115 0-1482-1506-1482-663 0-941 282zm0 750q347-541 963-541 900 0 900 981 0 882-1450 813v531q1134 0 1134 1e3 0 684-731 684-816 0-816-975v-2493z"/>
      <path id="DejaVuSans-3d" transform="scale(.015625)" d="m678 2906h4006v-525h-4006v525zm0-1275h4006v-531h-4006v531z"/>
      <path id="DejaVuSans-36" transform="scale(.015625)" d="m2113 2584q-425 0-674-291-248-290-248-796 0-503 248-796 249-292 674-292t673 292q248 293 248 796 0 506-248 796-248 291-673 291zm1253 1979v-575q-238 112-480 171-242 60-480 60-625 0-955-422-329-422-376-1275 184 272 462 417 279 145 613 145 703 0 1111-427 408-426 408-1160 0-719-425-1154-425-434-1131-434-810 0-1238 620-428 621-428 1799 0 1106 525 1764t1409 658q238 0 480-47t505-140z"/>
      <path id="DejaVuSans-34" transform="scale(.015625)" d="m2419 4116-1594-2491h1594v2491zm-166 550h794v-3041h666v-525h-666v-1100h-628v1100h-2106v609l1940 2957z"/>
      <path id="DejaVuSans-2c" transform="scale(.015625)" d="m750 794h659v-538l-512-1e3h-403l256 1e3v538z"/>
      <path id="DejaVuSans-3c9" transform="scale(.015625)" d="m1719-91q-1297 0-1297 1857 0 734 484 1734h619q-447-1e3 -447-1750 0-1353 694-1353 634 0 634 1681h532q0-1681 634-1681 694 0 694 1353 0 750-447 1750h619q484-1e3 484-1734 0-1857-1297-1857-850 0-953 935-128-935-953-935z"/>
      <path id="DejaVuSans-2e" transform="scale(.015625)" d="m684 794h660v-794h-660v794z"/>
      <path id="DejaVuSans-39" transform="scale(.015625)" d="m703 97v575q238-113 481-172 244-59 479-59 625 0 954 420 330 420 377 1277-181-269-460-413-278-144-615-144-700 0-1108 423-408 424-408 1159 0 718 425 1152 425 435 1131 435 810 0 1236-621 427-620 427-1801 0-1103-524-1761-523-658-1407-658-238 0-482 47-243 47-506 141zm1256 1978q425 0 673 290 249 291 249 798 0 503-249 795-248 292-673 292t-673-292-248-795q0-507 248-798 248-290 673-290z"/>
     </defs>
     <use xlink:href="#DejaVuSans-48"/>
     <use transform="translate(75.195)" xlink:href="#DejaVuSans-e9"/>
     <use transform="translate(136.72)" xlink:href="#DejaVuSans-6e"/>
     <use transform="translate(200.1)" xlink:href="#DejaVuSans-6f"/>
     <use transform="translate(261.28)" xlink:href="#DejaVuSans-6e"/>
     <use transform="translate(324.66)" xlink:href="#DejaVuSans-20"/>
     <use transform="translate(356.45)" xlink:href="#DejaVuSans-46"/>
     <use transform="translate(413.96)" xlink:href="#DejaVuSans-49"/>
     <use transform="translate(443.46)" xlink:href="#DejaVuSans-52"/>
     <use transform="translate(512.94)" xlink:href="#DejaVuSans-20"/>
     <use transform="translate(544.73)" xlink:href="#DejaVuSans-41"/>
     <use transform="translate(607.63)" xlink:href="#DejaVuSans-57"/>
     <use transform="translate(706.51)" xlink:href="#DejaVuSans-47"/>
     <use transform="translate(784)" xlink:href="#DejaVuSans-4e"/>
     <use transform="translate(858.81)" xlink:href="#DejaVuSans-20"/>
     <use transform="translate(890.59)" xlink:href="#DejaVuSans-20"/>
     <use transform="translate(922.38)" xlink:href="#DejaVuSans-28"/>
     <use transform="translate(961.39)" xlink:href="#DejaVuSans-3b2"/>
     <use transform="translate(1025.2)" xlink:href="#DejaVuSans-3d"/>
     <use transform="translate(1109)" xlink:href="#DejaVuSans-36"/>
     <use transform="translate(1172.6)" xlink:href="#DejaVuSans-34"/>
     <use transform="translate(1236.2)" xlink:href="#DejaVuSans-2c"/>
     <use transform="translate(1268)" xlink:href="#DejaVuSans-20"/>
     <use transform="translate(1299.8)" xlink:href="#DejaVuSans-35"/>
     <use transform="translate(1363.4)" xlink:href="#DejaVuSans-20"/>
     <use transform="translate(1395.2)" xlink:href="#DejaVuSans-74"/>
     <use transform="translate(1434.4)" xlink:href="#DejaVuSans-61"/>
     <use transform="translate(1495.7)" xlink:href="#DejaVuSans-70"/>
     <use transform="translate(1559.2)" xlink:href="#DejaVuSans-73"/>
     <use transform="translate(1611.3)" xlink:href="#DejaVuSans-2c"/>
     <use transform="translate(1643.1)" xlink:href="#DejaVuSans-20"/>
     <use transform="translate(1674.9)" xlink:href="#DejaVuSans-3c9"/>
     <use transform="translate(1758.6)" xlink:href="#DejaVuSans-63"/>
     <use transform="translate(1813.6)" xlink:href="#DejaVuSans-3d"/>
     <use transform="translate(1897.4)" xlink:href="#DejaVuSans-30"/>
     <use transform="translate(1961)" xlink:href="#DejaVuSans-2e"/>
     <use transform="translate(1992.8)" xlink:href="#DejaVuSans-39"/>
     <use transform="translate(2056.4)" xlink:href="#DejaVuSans-30"/>
     <use transform="translate(2120)" xlink:href="#DejaVuSans-39"/>
     <use transform="translate(2183.7)" xlink:href="#DejaVuSans-31"/>
     <use transform="translate(2247.3)" xlink:href="#DejaVuSans-29"/>
    </g>
   </g>
   <g id="legend_1">
    <g id="patch_7">
     <path d="m62.162 421.54h162.85q1.8 0 1.8-1.8v-65.168q0-1.8-1.8-1.8h-162.85q-1.8 0-1.8 1.8v65.168q0 1.8 1.8 1.8z" fill="#fff" opacity=".8" stroke="#ccc"/>
    </g>
    <g id="line2d_42">
     <path d="m63.962 360.08h9 9" fill="none" stroke="#808080" stroke-dasharray="5.92,2.56" stroke-width="1.6"/>
     <use x="72.962054" y="360.077031" fill="#808080" stroke="#808080" xlink:href="#m5eda04052c"/>
    </g>
    <g id="text_13">
     <!-- Pecora-Carroll (sincronização) -->
     <g transform="translate(89.162 363.23) scale(.09 -.09)">
      <defs>
       <path id="DejaVuSans-50" transform="scale(.015625)" d="m1259 4147v-1753h794q441 0 681 228 241 228 241 650 0 419-241 647-240 228-681 228h-794zm-631 519h1425q785 0 1186-355 402-355 402-1039 0-691-402-1044-401-353-1186-353h-794v-1875h-631v4666z"/>
       <path id="DejaVuSans-2d" transform="scale(.015625)" d="m313 2009h1684v-512h-1684v512z"/>
       <path id="DejaVuSans-6c" transform="scale(.015625)" d="m603 4863h575v-4863h-575v4863z"/>
       <path id="DejaVuSans-7a" transform="scale(.015625)" d="m353 3500h2731v-525l-2162-2516h2162v-459h-2809v525l2163 2516h-2085v459z"/>
      </defs>
      <use xlink:href="#DejaVuSans-50"/>
      <use transform="translate(56.678)" xlink:href="#DejaVuSans-65"/>
      <use transform="translate(118.2)" xlink:href="#DejaVuSans-63"/>
      <use transform="translate(173.18)" xlink:href="#DejaVuSans-6f"/>
      <use transform="translate(234.36)" xlink:href="#DejaVuSans-72"/>
      <use transform="translate(275.48)" xlink:href="#DejaVuSans-61"/>
      <use transform="translate(336.76)" xlink:href="#DejaVuSans-2d"/>
      <use transform="translate(372.84)" xlink:href="#DejaVuSans-43"/>
      <use transform="translate(442.66)" xlink:href="#DejaVuSans-61"/>
      <use transform="translate(503.94)" xlink:href="#DejaVuSans-72"/>
      <use transform="translate(543.31)" xlink:href="#DejaVuSans-72"/>
      <use transform="translate(582.17)" xlink:href="#DejaVuSans-6f"/>
      <use transform="translate(643.35)" xlink:href="#DejaVuSans-6c"/>
      <use transform="translate(671.13)" xlink:href="#DejaVuSans-6c"/>
      <use transform="translate(698.92)" xlink:href="#DejaVuSans-20"/>
      <use transform="translate(730.71)" xlink:href="#DejaVuSans-28"/>
      <use transform="translate(769.72)" xlink:href="#DejaVuSans-73"/>
      <use transform="translate(821.82)" xlink:href="#DejaVuSans-69"/>
      <use transform="translate(849.6)" xlink:href="#DejaVuSans-6e"/>
      <use transform="translate(912.98)" xlink:href="#DejaVuSans-63"/>
      <use transform="translate(967.96)" xlink:href="#DejaVuSans-72"/>
      <use transform="translate(1006.8)" xlink:href="#DejaVuSans-6f"/>
      <use transform="translate(1068)" xlink:href="#DejaVuSans-6e"/>
      <use transform="translate(1131.4)" xlink:href="#DejaVuSans-69"/>
      <use transform="translate(1159.2)" xlink:href="#DejaVuSans-7a"/>
      <use transform="translate(1211.7)" xlink:href="#DejaVuSans-61"/>
      <use transform="translate(1272.9)" xlink:href="#DejaVuSans-e7"/>
      <use transform="translate(1327.9)" xlink:href="#DejaVuSans-e3"/>
      <use transform="translate(1389.2)" xlink:href="#DejaVuSans-6f"/>
      <use transform="translate(1450.4)" xlink:href="#DejaVuSans-29"/>
     </g>
    </g>
    <g id="line2d_43">
     <path d="m63.962 373.29h9 9" fill="none" stroke="#4682b4" stroke-linecap="square" stroke-width="1.8"/>
     <use x="72.962054" y="373.287344" fill="#4682b4" stroke="#4682b4" xlink:href="#mff856e3de3"/>
    </g>
    <g id="text_14">
     <!-- DCSK clássico -->
     <g transform="translate(89.162 376.44) scale(.09 -.09)">
      <defs>
       <path id="DejaVuSans-44" transform="scale(.015625)" d="m1259 4147v-3628h763q966 0 1414 437 448 438 448 1382 0 937-448 1373t-1414 436h-763zm-631 519h1297q1356 0 1990-564 635-564 635-1764 0-1207-638-1773-637-565-1987-565h-1297v4666z"/>
       <path id="DejaVuSans-4b" transform="scale(.015625)" d="m628 4666h631v-1972l2094 1972h813l-2316-2175 2481-2491h-831l-2241 2247v-2247h-631v4666z"/>
       <path id="DejaVuSans-e1" transform="scale(.015625)" d="m2194 1759q-697 0-966-159t-269-544q0-306 202-486 202-179 548-179 479 0 768 339t289 901v128h-572zm1147 238v-1997h-575v531q-197-318-491-470t-719-152q-537 0-855 302-317 302-317 808 0 590 395 890 396 300 1180 300h807v57q0 397-261 614t-733 217q-300 0-585-72-284-72-546-216v532q315 122 612 182 297 61 578 61 760 0 1135-394 375-393 375-1193zm-1051 3122h622l-1018-1175h-479l875 1175z"/>
      </defs>
      <use xlink:href="#DejaVuSans-44"/>
      <use transform="translate(77.002)" xlink:href="#DejaVuSans-43"/>
      <use transform="translate(146.83)" xlink:href="#DejaVuSans-53"/>
      <use transform="translate(210.3)" xlink:href="#DejaVuSans-4b"/>
      <use transform="translate(275.88)" xlink:href="#DejaVuSans-20"/>
      <use transform="translate(307.67)" xlink:href="#DejaVuSans-63"/>
      <use transform="translate(362.65)" xlink:href="#DejaVuSans-6c"/>
      <use transform="translate(390.43)" xlink:href="#DejaVuSans-e1"/>
      <use transform="translate(451.71)" xlink:href="#DejaVuSans-73"/>
      <use transform="translate(503.81)" xlink:href="#DejaVuSans-73"/>
      <use transform="translate(555.91)" xlink:href="#DejaVuSans-69"/>
      <use transform="translate(583.69)" xlink:href="#DejaVuSans-63"/>
      <use transform="translate(638.67)" xlink:href="#DejaVuSans-6f"/>
     </g>
    </g>
    <g id="line2d_44">
     <path d="m63.962 386.5h9 9" fill="none" stroke="#ff8c00" stroke-linecap="square" stroke-width="1.8"/>
     <use x="72.962054" y="386.497656" fill="#ff8c00" stroke="#ff8c00" xlink:href="#m298b8a013a"/>
    </g>
    <g id="text_15">
     <!-- EF-DCSK (eficiente) -->
     <g transform="translate(89.162 389.65) scale(.09 -.09)">
      <defs>
       <path id="DejaVuSans-66" transform="scale(.015625)" d="m2375 4863v-479h-550q-309 0-430-125-120-125-120-450v-309h947v-447h-947v-3053h-578v3053h-550v447h550v244q0 584 272 851 272 268 862 268h544z"/>
      </defs>
      <use xlink:href="#DejaVuSans-45"/>
      <use transform="translate(63.184)" xlink:href="#DejaVuSans-46"/>
      <use transform="translate(120.7)" xlink:href="#DejaVuSans-2d"/>
      <use transform="translate(156.79)" xlink:href="#DejaVuSans-44"/>
      <use transform="translate(233.79)" xlink:href="#DejaVuSans-43"/>
      <use transform="translate(303.61)" xlink:href="#DejaVuSans-53"/>
      <use transform="translate(367.09)" xlink:href="#DejaVuSans-4b"/>
      <use transform="translate(432.67)" xlink:href="#DejaVuSans-20"/>
      <use transform="translate(464.45)" xlink:href="#DejaVuSans-28"/>
      <use transform="translate(503.47)" xlink:href="#DejaVuSans-65"/>
      <use transform="translate(564.99)" xlink:href="#DejaVuSans-66"/>
      <use transform="translate(600.2)" xlink:href="#DejaVuSans-69"/>
      <use transform="translate(627.98)" xlink:href="#DejaVuSans-63"/>
      <use transform="translate(682.96)" xlink:href="#DejaVuSans-69"/>
      <use transform="translate(710.74)" xlink:href="#DejaVuSans-65"/>
      <use transform="translate(772.27)" xlink:href="#DejaVuSans-6e"/>
      <use transform="translate(835.64)" xlink:href="#DejaVuSans-74"/>
      <use transform="translate(874.85)" xlink:href="#DejaVuSans-65"/>
      <use transform="translate(936.38)" xlink:href="#DejaVuSans-29"/>
     </g>
    </g>
    <g id="line2d_45">
     <path d="m63.962 399.71h9 9" fill="none" stroke="#808080" stroke-dasharray="1,1.65"/>
    </g>
    <g id="text_16">
     <!-- BER = 1% -->
     <g transform="translate(89.162 402.86) scale(.09 -.09)">
      <defs>
       <path id="DejaVuSans-25" transform="scale(.015625)" d="m4653 2053q-272 0-427-231-154-231-154-644 0-406 154-639 155-233 427-233 266 0 420 233 155 233 155 639 0 410-155 642-154 233-420 233zm0 397q494 0 784-344 291-343 291-928 0-584-292-927-292-342-783-342-500 0-791 342-290 343-290 927 0 588 292 930t789 342zm-3225 1903q-269 0-424-233-154-232-154-639 0-412 153-644 153-231 425-231t426 231q155 232 155 644 0 403-156 637-156 235-425 235zm2822 397h500l-2919-4841h-500l2919 4841zm-2822 0q494 0 787-342 294-342 294-927 0-590-292-931t-789-341-786 342q-289 343-289 930 0 582 290 925 291 344 785 344z"/>
      </defs>
      <use xlink:href="#DejaVuSans-42"/>
      <use transform="translate(68.604)" xlink:href="#DejaVuSans-45"/>
      <use transform="translate(131.79)" xlink:href="#DejaVuSans-52"/>
      <use transform="translate(201.27)" xlink:href="#DejaVuSans-20"/>
      <use transform="translate(233.06)" xlink:href="#DejaVuSans-3d"/>
      <use transform="translate(316.85)" xlink:href="#DejaVuSans-20"/>
      <use transform="translate(348.63)" xlink:href="#DejaVuSans-31"/>
      <use transform="translate(412.26)" xlink:href="#DejaVuSans-25"/>
     </g>
    </g>
    <g id="line2d_46">
     <path d="m63.962 412.92h9 9" fill="none" stroke="#f00" stroke-dasharray="4.44,1.92" stroke-width="1.2"/>
    </g>
    <g id="text_17">
     <!-- BER = 50% (colapso) -->
     <g transform="translate(89.162 416.07) scale(.09 -.09)">
      <use xlink:href="#DejaVuSans-42"/>
      <use transform="translate(68.604)" xlink:href="#DejaVuSans-45"/>
      <use transform="translate(131.79)" xlink:href="#DejaVuSans-52"/>
      <use transform="translate(201.27)" xlink:href="#DejaVuSans-20"/>
      <use transform="translate(233.06)" xlink:href="#DejaVuSans-3d"/>
      <use transform="translate(316.85)" xlink:href="#DejaVuSans-20"/>
      <use transform="translate(348.63)" xlink:href="#DejaVuSans-35"/>
      <use transform="translate(412.26)" xlink:href="#DejaVuSans-30"/>
      <use transform="translate(475.88)" xlink:href="#DejaVuSans-25"/>
      <use transform="translate(570.9)" xlink:href="#DejaVuSans-20"/>
      <use transform="translate(602.69)" xlink:href="#DejaVuSans-28"/>
      <use transform="translate(641.7)" xlink:href="#DejaVuSans-63"/>
      <use transform="translate(696.68)" xlink:href="#DejaVuSans-6f"/>
      <use transform="translate(757.86)" xlink:href="#DejaVuSans-6c"/>
      <use transform="translate(785.64)" xlink:href="#DejaVuSans-61"/>
      <use transform="translate(846.92)" xlink:href="#DejaVuSans-70"/>
      <use transform="translate(910.4)" xlink:href="#DejaVuSans-73"/>
      <use transform="translate(962.5)" xlink:href="#DejaVuSans-6f"/>
      <use transform="translate(1023.7)" xlink:href="#DejaVuSans-29"/>
     </g>
    </g>
   </g>
  </g>
 </g>
 <defs>
  <clipPath id="pc651465504">
   <rect x="55.862" y="42.648" width="725.34" height="383.39"/>
  </clipPath>
 </defs>
</svg>
