<?xml version="1.0" encoding="UTF-8"?>
<!DOCTYPE svg  PUBLIC '-//W3C//DTD SVG 1.1//EN'  'http://www.w3.org/Graphics/SVG/1.1/DTD/svg11.dtd'>
<svg width="627.12pt" height="267.26pt" version="1.1" viewBox="0 0 627.12 267.26" xmlns="http://www.w3.org/2000/svg" xmlns:xlink="http://www.w3.org/1999/xlink">
 <metadata>
  <rdf:RDF xmlns:cc="http://creativecommons.org/ns#" xmlns:dc="http://purl.org/dc/elements/1.1/" xmlns:rdf="http://www.w3.org/1999/02/22-rdf-syntax-ns#">
   <cc:Work>
    <dc:type rdf:resource="http://purl.org/dc/dcmitype/StillImage"/>
    <dc:date>2026-05-01T16:48:09.416275</dc:date>
    <dc:format>image/svg+xml</dc:format>
    <dc:creator>
     <cc:Agent>
      <dc:title>Matplotlib v3.10.8, https://matplotlib.org/</dc:title>
     </cc:Agent>
    </dc:creator>
   </cc:Work>
  </rdf:RDF>
 </metadata>
 <defs>
  <style type="text/css">*{stroke-linejoin: round; stroke-linecap: butt}</style>
 </defs>
 <g id="figure_1">
  <g id="patch_1">
   <path d="m0 267.26h627.12v-267.26h-627.12z" fill="#fff"/>
  </g>
  <g id="axes_1">
   <g id="patch_2">
    <path d="m45.18 234.56h578.34v-216.08h-578.34z" fill="#fff"/>
   </g>
   <g id="matplotlib.axis_1">
    <g id="xtick_1">
     <g id="line2d_1">
      <path d="m71.468 234.56v-216.08" clip-path="url(#pc104bc813b)" fill="none" stroke="#b0b0b0" stroke-linecap="square" stroke-opacity=".25" stroke-width=".5"/>
     </g>
     <g id="line2d_2">
      <defs>
       <path id="m3c40e12be2" d="m0 0v-3.5" stroke="#000" stroke-width="1.2"/>
      </defs>
      <use x="71.468182" y="234.561094" stroke="#000000" stroke-width="1.2" xlink:href="#m3c40e12be2"/>
     </g>
     <g id="text_1">
      <!-- $\mathdefault{0}$ -->
      <g transform="translate(68.468 246.26) scale(.12 -.12)">
       <defs>
        <path id="STIXGeneral-Regular-30" transform="scale(.015625)" d="m3046 2112q0-429-83-810-83-380-246-700t-451-506-666-186q-390 0-685 198-294 199-454 532t-234 710q-73 378-73 800 0 596 147 1072 147 477 489 790 343 314 836 314 627 0 1023-614 397-614 397-1600zm-614-32q0 1011-215 1545-214 535-630 535-397 0-608-538-211-537-211-1516 0-986 211-1508 211-521 621-521 403 0 617 521 215 522 215 1482z"/>
       </defs>
       <use transform="translate(0 .40625)" xlink:href="#STIXGeneral-Regular-30"/>
      </g>
     </g>
    </g>
    <g id="xtick_2">
     <g id="line2d_3">
      <path d="m176.62 234.56v-216.08" clip-path="url(#pc104bc813b)" fill="none" stroke="#b0b0b0" stroke-linecap="square" stroke-opacity=".25" stroke-width=".5"/>
     </g>
     <g id="line2d_4">
      <use x="176.620909" y="234.561094" stroke="#000000" stroke-width="1.2" xlink:href="#m3c40e12be2"/>
     </g>
     <g id="text_2">
      <!-- $\mathdefault{10}$ -->
      <g transform="translate(170.62 246.26) scale(.12 -.12)">
       <defs>
        <path id="STIXGeneral-Regular-31" transform="scale(.015625)" d="m2522 0h-1767v96q352 19 480 131t128 381v2874q0 313-192 313-89 0-288-77l-173-64v90l1146 582 58-19v-3821q0-211 128-301 128-89 480-89v-96z"/>
       </defs>
       <use transform="translate(0 .40625)" xlink:href="#STIXGeneral-Regular-31"/>
       <use transform="translate(50 .40625)" xlink:href="#STIXGeneral-Regular-30"/>
      </g>
     </g>
    </g>
    <g id="xtick_3">
     <g id="line2d_5">
      <path d="m281.77 234.56v-216.08" clip-path="url(#pc104bc813b)" fill="none" stroke="#b0b0b0" stroke-linecap="square" stroke-opacity=".25" stroke-width=".5"/>
     </g>
     <g id="line2d_6">
      <use x="281.773636" y="234.561094" stroke="#000000" stroke-width="1.2" xlink:href="#m3c40e12be2"/>
     </g>
     <g id="text_3">
      <!-- $\mathdefault{20}$ -->
      <g transform="translate(275.77 246.26) scale(.12 -.12)">
       <defs>
        <path id="STIXGeneral-Regular-32" transform="scale(.015625)" d="m3034 877-346-877h-2502v77l1139 1209q448 468 640 858t192 806q0 429-237 666t-653 237q-345 0-547-180-202-179-394-652l-134 32q109 595 438 934 330 339 893 339 531 0 857-320 327-320 327-806 0-723-819-1587l-1056-1127h1498q211 0 335 83 125 84 279 346l90-38z"/>
       </defs>
       <use transform="translate(0 .40625)" xlink:href="#STIXGeneral-Regular-32"/>
       <use transform="translate(50 .40625)" xlink:href="#STIXGeneral-Regular-30"/>
      </g>
     </g>
    </g>
    <g id="xtick_4">
     <g id="line2d_7">
      <path d="m386.93 234.56v-216.08" clip-path="url(#pc104bc813b)" fill="none" stroke="#b0b0b0" stroke-linecap="square" stroke-opacity=".25" stroke-width=".5"/>
     </g>
     <g id="line2d_8">
      <use x="386.926364" y="234.561094" stroke="#000000" stroke-width="1.2" xlink:href="#m3c40e12be2"/>
     </g>
     <g id="text_4">
      <!-- $\mathdefault{30}$ -->
      <g transform="translate(380.93 246.26) scale(.12 -.12)">
       <defs>
        <path id="STIXGeneral-Regular-33" transform="scale(.015625)" d="m390 3264-102 26q147 480 460 758 314 278 794 278 448 0 723-243 276-243 276-633 0-525-595-884 352-153 531-339 281-313 281-825t-294-896q-218-295-624-446-406-150-861-150-717 0-717 365 0 103 77 167t186 64q160 0 390-167 282-198 551-198 352 0 592 284 240 285 240 695 0 736-666 928-198 64-653 64v90q359 121 538 230 518 294 518 858 0 320-183 486-182 166-508 166-576 0-954-678z"/>
       </defs>
       <use transform="translate(0 .40625)" xlink:href="#STIXGeneral-Regular-33"/>
       <use transform="translate(50 .40625)" xlink:href="#STIXGeneral-Regular-30"/>
      </g>
     </g>
    </g>
    <g id="xtick_5">
     <g id="line2d_9">
      <path d="m492.08 234.56v-216.08" clip-path="url(#pc104bc813b)" fill="none" stroke="#b0b0b0" stroke-linecap="square" stroke-opacity=".25" stroke-width=".5"/>
     </g>
     <g id="line2d_10">
      <use x="492.079091" y="234.561094" stroke="#000000" stroke-width="1.2" xlink:href="#m3c40e12be2"/>
     </g>
     <g id="text_5">
      <!-- $\mathdefault{40}$ -->
      <g transform="translate(486.08 246.26) scale(.12 -.12)">
       <defs>
        <path id="STIXGeneral-Regular-34" transform="scale(.015625)" d="m3027 1069h-659v-1069h-499v1069h-1792v409l2009 2848h282v-2848h659v-409zm-1158 409v2196l-1536-2196h1536z"/>
       </defs>
       <use transform="translate(0 .40625)" xlink:href="#STIXGeneral-Regular-34"/>
       <use transform="translate(50 .40625)" xlink:href="#STIXGeneral-Regular-30"/>
      </g>
     </g>
    </g>
    <g id="xtick_6">
     <g id="line2d_11">
      <path d="m597.23 234.56v-216.08" clip-path="url(#pc104bc813b)" fill="none" stroke="#b0b0b0" stroke-linecap="square" stroke-opacity=".25" stroke-width=".5"/>
     </g>
     <g id="line2d_12">
      <use x="597.231818" y="234.561094" stroke="#000000" stroke-width="1.2" xlink:href="#m3c40e12be2"/>
     </g>
     <g id="text_6">
      <!-- $\mathdefault{50}$ -->
      <g transform="translate(591.23 246.26) scale(.12 -.12)">
       <defs>
        <path id="STIXGeneral-Regular-35" transform="scale(.015625)" d="m2803 4358-230-544q-39-83-173-83h-1242l-256-544q704-134 1018-291t582-528q224-307 224-813 0-461-150-775-150-313-477-556-435-314-1088-314-365 0-589 109t-224 288q0 243 288 243 231 0 474-198 250-205 454-205 333 0 598 333 266 333 266 749 0 614-428 960-557 448-1364 448-76 0-76 51l6 32 698 1517h1324q109 0 170 32t138 134l57-45z"/>
       </defs>
       <use transform="translate(0 .20312)" xlink:href="#STIXGeneral-Regular-35"/>
       <use transform="translate(50 .20312)" xlink:href="#STIXGeneral-Regular-30"/>
      </g>
     </g>
    </g>
    <g id="text_7">
     <!-- $n$ -->
     <g transform="translate(331.35 261.06) scale(.12 -.12)">
      <defs>
       <path id="STIXGeneral-Italic-6e" transform="scale(.015625)" d="m2944 749 90-83q-327-448-500-586-172-138-396-138-128 0-215 86-86 87-86 260 0 102 102 480l282 1037q89 345 89 505 0 186-153 186-186 0-407-221-220-221-540-688-212-313-311-563t-329-1024h-480l614 2240q13 64 13 109 0 96-87 131-86 35-329 42v102q249 51 556 105 308 55 481 93l25-12-429-1396q474 756 819 1082 346 326 660 326 198 0 307-106 109-105 109-284 0-160-64-384l-359-1299q-89-320-89-391 0-115 102-115 122 0 391 339 44 52 134 167z"/>
      </defs>
      <use transform="translate(0 .90625)" xlink:href="#STIXGeneral-Italic-6e"/>
     </g>
    </g>
   </g>
   <g id="matplotlib.axis_2">
    <g id="ytick_1">
     <g id="line2d_13">
      <path d="m45.18 204.51h578.34" clip-path="url(#pc104bc813b)" fill="none" stroke="#b0b0b0" stroke-linecap="square" stroke-opacity=".25" stroke-width=".5"/>
     </g>
     <g id="line2d_14">
      <defs>
       <path id="m933b0c60a8" d="m0 0h3.5" stroke="#000" stroke-width="1.2"/>
      </defs>
      <use x="45.18" y="204.513058" stroke="#000000" stroke-width="1.2" xlink:href="#m933b0c60a8"/>
     </g>
     <g id="text_8">
      <!-- $\mathdefault{-1.0}$ -->
      <g transform="translate(18.4 208.61) scale(.12 -.12)">
       <defs>
        <path id="STIXGeneral-Regular-2212" transform="scale(.015625)" d="m3974 1408h-3564v422h3564v-422z"/>
        <path id="STIXGeneral-Regular-2e" transform="scale(.015625)" d="m1158 275q0-141-106-243-105-102-252-102t-250 102q-102 102-102 249 0 148 105 253 106 106 253 106 141 0 246-109 106-109 106-256z"/>
       </defs>
       <use transform="translate(0 .40625)" xlink:href="#STIXGeneral-Regular-2212"/>
       <use transform="translate(68.5 .40625)" xlink:href="#STIXGeneral-Regular-31"/>
       <use transform="translate(118.5 .40625)" xlink:href="#STIXGeneral-Regular-2e"/>
       <use transform="translate(143.5 .40625)" xlink:href="#STIXGeneral-Regular-30"/>
      </g>
     </g>
    </g>
    <g id="ytick_2">
     <g id="line2d_15">
      <path d="m45.18 165.6h578.34" clip-path="url(#pc104bc813b)" fill="none" stroke="#b0b0b0" stroke-linecap="square" stroke-opacity=".25" stroke-width=".5"/>
     </g>
     <g id="line2d_16">
      <use x="45.18" y="165.601109" stroke="#000000" stroke-width="1.2" xlink:href="#m933b0c60a8"/>
     </g>
     <g id="text_9">
      <!-- $\mathdefault{-0.5}$ -->
      <g transform="translate(18.4 169.7) scale(.12 -.12)">
       <use transform="translate(0 .20312)" xlink:href="#STIXGeneral-Regular-2212"/>
       <use transform="translate(68.5 .20312)" xlink:href="#STIXGeneral-Regular-30"/>
       <use transform="translate(118.5 .20312)" xlink:href="#STIXGeneral-Regular-2e"/>
       <use transform="translate(143.5 .20312)" xlink:href="#STIXGeneral-Regular-35"/>
      </g>
     </g>
    </g>
    <g id="ytick_3">
     <g id="line2d_17">
      <path d="m45.18 126.69h578.34" clip-path="url(#pc104bc813b)" fill="none" stroke="#b0b0b0" stroke-linecap="square" stroke-opacity=".25" stroke-width=".5"/>
     </g>
     <g id="line2d_18">
      <use x="45.18" y="126.68916" stroke="#000000" stroke-width="1.2" xlink:href="#m933b0c60a8"/>
     </g>
     <g id="text_10">
      <!-- $\mathdefault{0.0}$ -->
      <g transform="translate(26.68 130.79) scale(.12 -.12)">
       <use transform="translate(0 .40625)" xlink:href="#STIXGeneral-Regular-30"/>
       <use transform="translate(50 .40625)" xlink:href="#STIXGeneral-Regular-2e"/>
       <use transform="translate(75 .40625)" xlink:href="#STIXGeneral-Regular-30"/>
      </g>
     </g>
    </g>
    <g id="ytick_4">
     <g id="line2d_19">
      <path d="m45.18 87.777h578.34" clip-path="url(#pc104bc813b)" fill="none" stroke="#b0b0b0" stroke-linecap="square" stroke-opacity=".25" stroke-width=".5"/>
     </g>
     <g id="line2d_20">
      <use x="45.18" y="87.777211" stroke="#000000" stroke-width="1.2" xlink:href="#m933b0c60a8"/>
     </g>
     <g id="text_11">
      <!-- $\mathdefault{0.5}$ -->
      <g transform="translate(26.68 91.875) scale(.12 -.12)">
       <use transform="translate(0 .20312)" xlink:href="#STIXGeneral-Regular-30"/>
       <use transform="translate(50 .20312)" xlink:href="#STIXGeneral-Regular-2e"/>
       <use transform="translate(75 .20312)" xlink:href="#STIXGeneral-Regular-35"/>
      </g>
     </g>
    </g>
    <g id="ytick_5">
     <g id="line2d_21">
      <path d="m45.18 48.865h578.34" clip-path="url(#pc104bc813b)" fill="none" stroke="#b0b0b0" stroke-linecap="square" stroke-opacity=".25" stroke-width=".5"/>
     </g>
     <g id="line2d_22">
      <use x="45.18" y="48.865262" stroke="#000000" stroke-width="1.2" xlink:href="#m933b0c60a8"/>
     </g>
     <g id="text_12">
      <!-- $\mathdefault{1.0}$ -->
      <g transform="translate(26.68 52.963) scale(.12 -.12)">
       <use transform="translate(0 .40625)" xlink:href="#STIXGeneral-Regular-31"/>
       <use transform="translate(50 .40625)" xlink:href="#STIXGeneral-Regular-2e"/>
       <use transform="translate(75 .40625)" xlink:href="#STIXGeneral-Regular-30"/>
      </g>
     </g>
    </g>
    <g id="text_13">
     <!-- $x[n]$ -->
     <g transform="translate(11.796 136.18) rotate(-90) scale(.12 -.12)">
      <defs>
       <path id="STIXGeneral-Italic-78" transform="scale(.015625)" d="m1555 2272 77-365q339 519 547 717t419 198q116 0 189-67 74-67 74-170 0-102-61-166t-157-64q-57 0-153 54-96 55-180 55-185 0-627-774 0-84 51-288l205-858q64-262 192-262 103 0 301 256 19 25 44 60 26 36 45 64 20 29 45 55l96-58q-275-429-435-579t-345-150q-154 0-237 96t-141 339l-186 761-563-761q-198-269-323-352t-285-83q-147 0-233 70-87 70-87 198 0 96 61 163 61 68 157 68 77 0 205-71 96-57 166-57 109 0 326 313l525 743-179 793q-64 282-119 359-54 77-175 77-77 0-250-45l-115-32-19 102 70 26q512 185 749 185 121 0 191-115 71-115 135-435z"/>
       <path id="STIXGeneral-Regular-5b" transform="scale(.015625)" d="m1914-998h-1351v5235h1351v-160h-532q-166 0-249-71-83-70-83-236v-4263q0-345 332-345h532v-160z"/>
       <path id="STIXGeneral-Regular-5d" transform="scale(.015625)" d="m1568-998h-1350v160h563q166 0 233 70 68 70 68 224v4275q0 346-327 346h-537v160h1350v-5235z"/>
      </defs>
      <use transform="translate(0 .79688)" xlink:href="#STIXGeneral-Italic-78"/>
      <use transform="translate(44.4 .79688)" xlink:href="#STIXGeneral-Regular-5b"/>
      <use transform="translate(77.7 .79688)" xlink:href="#STIXGeneral-Italic-6e"/>
      <use transform="translate(127.7 .79688)" xlink:href="#STIXGeneral-Regular-5d"/>
     </g>
    </g>
   </g>
   <g id="line2d_23">
    <path d="m71.468 126.69 10.515-77.824 10.515 108.95 10.515-114.87 10.515 141.4 10.515-100.8 10.515 16.092 10.515-50.557 10.515 100.01 10.515-114.48 10.515 173.49 10.515-67.627 10.515-63.767 10.515 21.234 10.515-49.204 10.515 100.82 10.515-114.67 10.515 172.46 10.515-68.997 10.515-62.841 10.515 23.982 10.515-52.668 10.515 108.64 10.515-115.66 10.515 153.53 10.515-90.648 10.515-23.451 10.515 2.9574 10.515-11.928 10.515 22.546 10.515-40.21 10.515 84.874 10.515-108.74 10.515 196.01 10.515-32.317 10.515-36.413 10.515-71.959 10.515 6.3183 10.515-30.563 10.515 58.638 10.515-88.42 10.515 184.47 10.515-55.948 10.515-65.085 10.515-15.167 10.515 2.7475 10.515-9.1988 10.515 17.456 10.515-31.727 10.515 66.031 10.515-95.297" clip-path="url(#pc104bc813b)" fill="none" stroke="#4682b4" stroke-linecap="square" stroke-width="1.2"/>
   </g>
   <g id="line2d_24">
    <path d="m71.468 126.68 10.515-77.824 10.515 108.98 10.515-114.87 10.515 141.32 10.515-100.85 10.515 16.341 10.515-50.874 10.515 100.7 10.515-114.63 10.515 172.03 10.515-69.588 10.515-62.39 10.515 25.042 10.515-53.973 10.515 111.59 10.515-115.71 10.515 145.25 10.515-97.837 10.515 2.6487 10.515-32.779 10.515 60.979 10.515-90.861 10.515 187.87 10.515-50.029 10.515-61.63 10.515-36.566 10.515 33.314 10.515-60.115 10.515 127.66 10.515-112.79 10.515 91.846 10.515-112.05 10.515 163.68 10.515-80.434 10.515-48.342 10.515 29.292 10.515-56.912 10.515 119.46 10.515-114.96 10.515 120.74 10.515-111.11 10.515 87.479 10.515-110.87 10.515 171.19 10.515-71.314 10.515-60.921 10.515 27.61 10.515-57.03 10.515 118.52 10.515-115.1" clip-path="url(#pc104bc813b)" fill="none" stroke="#ff6347" stroke-linecap="square" stroke-opacity=".85" stroke-width="1.2"/>
   </g>
   <g id="patch_3">
    <path d="m45.18 234.56v-216.08" fill="none" stroke="#000" stroke-linecap="square" stroke-width="1.2"/>
   </g>
   <g id="patch_4">
    <path d="m623.52 234.56v-216.08" fill="none" stroke="#000" stroke-linecap="square" stroke-width="1.2"/>
   </g>
   <g id="patch_5">
    <path d="m45.18 234.56h578.34" fill="none" stroke="#000" stroke-linecap="square" stroke-width="1.2"/>
   </g>
   <g id="patch_6">
    <path d="m45.18 18.479h578.34" fill="none" stroke="#000" stroke-linecap="square" stroke-width="1.2"/>
   </g>
   <g id="text_14">
    <!-- Sensibilidade às Condições Iniciais — Mapa de Hénon -->
    <g transform="translate(191.18 12.479) scale(.13 -.13)">
     <defs>
      <path id="STIXGeneral-Regular-53" transform="scale(.015625)" d="m3002 2963h-160q-109 397-263 602-390 499-928 499-294 0-470-170-176-169-176-438 0-128 64-250 64-121 137-208 74-86 259-214 186-128 301-195 116-67 384-227 519-301 755-599 237-297 237-656 0-531-371-864t-934-333q-416 0-755 148-167 70-301 70-77 0-128-58-51-57-51-153h-141l-186 1357h141q429-1133 1318-1133 340 0 551 201 211 202 211 516 0 300-186 505-307 333-1075 743-781 416-781 1100 0 512 314 816t800 304q339 0 672-140 173-77 282-77 166 0 204 217h135l141-1363z"/>
      <path id="STIXGeneral-Regular-65" transform="scale(.015625)" d="m2611 1050 103-45q-384-1069-1338-1069-563 0-890 393-326 394-326 1060 0 685 365 1120t960 435q576 0 889-442 186-256 218-729h-1971q25-403 79-615 55-211 215-428 269-352 711-352 313 0 527 153 215 154 458 519zm-1977 928h1305q-57 403-189 569-131 167-438 167-269 0-448-189t-230-547z"/>
      <path id="STIXGeneral-Regular-6e" transform="scale(.015625)" d="m3104 0h-1331l6 96q237 19 317 137 80 119 80 439v1274q0 646-467 646-160 0-301-77t-358-288v-1766q0-192 86-269t330-96v-96h-1351v96q243 19 320 118 77 100 77 388v1555q0 237-45 326-45 90-179 90-128 0-186-26v109q448 128 877 288l51-19v-499h7q454 518 921 518 365 0 560-256 196-256 196-730v-1414q0-256 76-339 77-83 314-109v-96z"/>
      <path id="STIXGeneral-Regular-73" transform="scale(.015625)" d="m998 1926 666-403q320-192 441-359 122-166 122-428 0-320-266-560-265-240-630-240-301 0-467 58-173 57-294 57-109 0-154-77h-83v1005h102q103-467 295-685 192-217 518-217 237 0 384 134 147 135 147 339 0 295-339 480l-346 192q-768 429-768 928 0 372 240 580t644 208q281 0 428-71 116-51 180-51 44 0 102 64h70l32-870h-96q-108 435-272 611-163 176-451 176-217 0-349-109-131-109-131-326 0-109 73-234 74-125 202-202z"/>
      <path id="STIXGeneral-Regular-69" transform="scale(.015625)" d="m1152 4045q0-141-96-234t-237-93q-134 0-227 93t-93 234q0 134 96 230t231 96q140 0 233-96t93-230zm467-4045h-1517v96q333 19 419 115 87 96 87 455v1452q0 224-45 314t-166 90q-154 0-269-32v102l992 352 26-26v-2246q0-358 80-454t393-122v-96z"/>
      <path id="STIXGeneral-Regular-62" transform="scale(.015625)" d="m979 4358v-1952q103 244 336 391 234 147 528 147 506 0 829-403t323-1005q0-704-429-1152-428-448-1068-448-391 0-724 131-332 131-332 291v3264q0 237-58 304-58 68-256 68-45 0-109-13v109l192 57q653 199 736 224l32-13zm0-2323v-1561q0-148 182-241 183-92 439-92 378 0 595 275 237 294 237 845 0 627-250 979-211 301-569 301-256 0-445-151-189-150-189-355z"/>
      <path id="STIXGeneral-Regular-6c" transform="scale(.015625)" d="m1645 0h-1511v96q301 26 397 125t96 368v3001q0 231-58 320-57 90-211 90-134 0-236-13v103q608 147 1011 281l32-25v-3789q0-269 89-356 90-86 391-105v-96z"/>
      <path id="STIXGeneral-Regular-64" transform="scale(.015625)" d="m3142 269-940-333-26 19v410q-307-429-819-429-531 0-858 381-326 381-326 995 0 678 390 1155 391 477 941 477 346 0 672-275v998q0 199-58 263-57 64-236 64-90 0-141-7v103q582 153 941 281l32-13v-3628q0-224 54-295 54-70 227-70 39 0 147 6v-102zm-966 384v1472q0 256-195 448t-458 192q-365 0-583-327-217-326-217-870 0-589 240-944t643-355q301 0 474 205 96 108 96 179z"/>
      <path id="STIXGeneral-Regular-61" transform="scale(.015625)" d="m2829 422v-179q-243-307-576-307-365 0-410 467h-6q-410-467-928-467-301 0-487 176-185 176-185 490 0 448 448 748 307 205 1152 519v345q0 288-138 432-137 144-361 144-192 0-320-93-128-92-128-220 0-58 19-129 19-70 19-140 0-96-87-179-86-83-207-83-109 0-193 83-83 83-83 211 0 307 327 512 301 192 736 192 518 0 755-288 115-134 147-272t32-438v-1223q0-422 199-422 128 0 275 121zm-992 391v902q-589-205-819-422-218-199-218-493 0-243 121-368 122-125 321-125 211 0 371 103 134 96 179 179t45 224z"/>
      <path id="STIXGeneral-Regular-e0" transform="scale(.015625)" d="m2029 3245h-256l-986 614q-192 122-192 275 0 205 231 205 134 0 275-147l928-947zm800-2823v-179q-243-307-576-307-365 0-410 467h-6q-410-467-928-467-301 0-487 176-185 176-185 490 0 448 448 748 307 205 1152 519v345q0 288-138 432-137 144-361 144-192 0-320-93-128-92-128-220 0-58 19-129 19-70 19-140 0-96-87-179-86-83-207-83-109 0-193 83-83 83-83 211 0 307 327 512 301 192 736 192 518 0 755-288 115-134 147-272t32-438v-1223q0-422 199-422 128 0 275 121zm-992 391v902q-589-205-819-422-218-199-218-493 0-243 121-368 122-125 321-125 211 0 371 103 134 96 179 179t45 224z"/>
      <path id="STIXGeneral-Regular-43" transform="scale(.015625)" d="m3930 838 121-115q-569-813-1747-813-928 0-1510 570-615 602-615 1600 0 934 576 1581 602 665 1555 665 410 0 762-96 403-115 442-115 211 0 268 211h128l58-1452h-147q-103 460-333 710-454 486-1030 486-711 0-1124-522-412-521-412-1366 0-1030 460-1529 429-461 1140-461 422 0 729 147t679 499z"/>
      <path id="STIXGeneral-Regular-6f" transform="scale(.015625)" d="m3008 1478q0-672-400-1107t-1040-435q-589 0-986 432-396 432-396 1091 0 666 396 1075 397 410 1044 410 595 0 988-407 394-406 394-1059zm-576-172q0 729-320 1139-256 320-608 320-333 0-538-272-204-272-204-746 0-819 339-1312 217-320 576-320 352 0 553 317 202 317 202 874z"/>
      <path id="STIXGeneral-Regular-e7" transform="scale(.015625)" d="m2547 998 90-57q-250-506-525-740-275-233-666-265l-134-352q96 19 166 19 263 0 407-115t144-326q0-250-215-394-214-144-585-144-288 0-538 102l90 199q230-77 416-77 160 0 256 77t96 205q0 121-77 176-77 54-262 54-109 0-180-26l-44 32 243 583q-487 64-778 451t-291 957q0 819 538 1261 396 326 864 326 403 0 694-195t291-464q0-109-90-189-89-80-211-80-224 0-307 294l-38 141q-51 179-128 243t-250 64q-390 0-630-307t-240-806q0-551 275-900 275-348 717-348 275 0 473 131 199 131 429 470z"/>
      <path id="STIXGeneral-Regular-f5" transform="scale(.015625)" d="m2438 4083h186q-102-365-256-522-154-156-416-156-205 0-518 153l-148 71q-153 70-262 70-224 0-326-294h-186q70 313 240 479 170 167 406 167 218 0 448-115l154-77q179-96 339-96 109 0 182 70 74 71 157 250zm570-2605q0-672-400-1107t-1040-435q-589 0-986 432-396 432-396 1091 0 666 396 1075 397 410 1044 410 595 0 988-407 394-406 394-1059zm-576-172q0 729-320 1139-256 320-608 320-333 0-538-272-204-272-204-746 0-819 339-1312 217-320 576-320 352 0 553 317 202 317 202 874z"/>
      <path id="STIXGeneral-Regular-49" transform="scale(.015625)" d="m2016 0h-1901v122q403 12 512 118t109 477v2809q0 372-103 468-102 96-518 121v122h1901v-122q-403-19-515-122-112-102-112-467v-2809q0-359 115-471t512-124v-122z"/>
      <path id="STIXGeneral-Regular-63" transform="scale(.015625)" d="m2547 998 90-57q-275-538-525-736-326-269-736-269-531 0-874 400-342 400-342 1021 0 813 538 1261 396 326 864 326 403 0 694-195t291-464q0-109-90-189-89-80-211-80-224 0-307 294l-38 141q-51 179-128 243t-250 64q-390 0-630-307t-240-806q0-551 275-900 275-348 717-348 275 0 473 131 199 131 429 470z"/>
      <path id="STIXGeneral-Regular-2014" transform="scale(.015625)" d="m6400 1286h-6400v314h6400v-314z"/>
      <path id="STIXGeneral-Regular-4d" transform="scale(.015625)" d="m5530 0h-1792v122q377 25 476 143 100 119 100 522v2874l-1632-3661h-90l-1613 3514v-2548q0-518 109-672 109-153 486-172v-122h-1497v122q281 19 403 83t170 227 48 534v2548q0 364-109 470t-499 131v122h1267l1478-3213 1415 3213h1273v-122q-345-6-451-122-106-115-106-473v-2803q0-339 106-455 106-115 458-140v-122z"/>
      <path id="STIXGeneral-Regular-70" transform="scale(.015625)" d="m1018 2931v-493q403 506 921 506 467 0 768-384t301-979q0-698-387-1172-387-473-957-473-198 0-336 58-138 57-310 217v-1005q0-300 102-386 102-87 461-94v-115h-1549v109q282 26 365 109t83 333v2995q0 224-51 294-51 71-211 71-103 0-160-7v103q448 134 921 326l39-13zm0-793v-1575q0-141 220-282 221-140 445-140 346 0 560 326 215 327 215 858 0 563-215 899-214 336-573 336-224 0-438-141t-214-281z"/>
      <path id="STIXGeneral-Regular-48" transform="scale(.015625)" d="m4499 0h-1785v122q371 25 467 143 96 119 96 529v1222h-1939v-1293q0-352 102-467t454-134l7-122h-1786v122q378 25 474 137t96 522v2726q0 371-100 473-99 103-470 135v122h1792v-122q-358-32-464-138-105-105-105-470v-1209h1939v1209q0 371-100 473-99 103-470 135v122h1792v-122q-358-32-464-138-105-105-105-470v-2797q0-339 105-451 106-112 464-137v-122z"/>
      <path id="STIXGeneral-Regular-e9" transform="scale(.015625)" d="m742 3245 941 947q147 147 269 147 224 0 224-205 0-147-192-268l-986-621h-256zm1869-2195 103-45q-384-1069-1338-1069-563 0-890 393-326 394-326 1060 0 685 365 1120t960 435q576 0 889-442 186-256 218-729h-1971q25-403 79-615 55-211 215-428 269-352 711-352 313 0 527 153 215 154 458 519zm-1977 928h1305q-57 403-189 569-131 167-438 167-269 0-448-189t-230-547z"/>
     </defs>
     <use xlink:href="#STIXGeneral-Regular-53"/>
     <use transform="translate(55.6)" xlink:href="#STIXGeneral-Regular-65"/>
     <use transform="translate(100)" xlink:href="#STIXGeneral-Regular-6e"/>
     <use transform="translate(150)" xlink:href="#STIXGeneral-Regular-73"/>
     <use transform="translate(188.9)" xlink:href="#STIXGeneral-Regular-69"/>
     <use transform="translate(216.7)" xlink:href="#STIXGeneral-Regular-62"/>
     <use transform="translate(266.7)" xlink:href="#STIXGeneral-Regular-69"/>
     <use transform="translate(294.5)" xlink:href="#STIXGeneral-Regular-6c"/>
     <use transform="translate(322.3)" xlink:href="#STIXGeneral-Regular-69"/>
     <use transform="translate(350.1)" xlink:href="#STIXGeneral-Regular-64"/>
     <use transform="translate(400.1)" xlink:href="#STIXGeneral-Regular-61"/>
     <use transform="translate(444.5)" xlink:href="#STIXGeneral-Regular-64"/>
     <use transform="translate(494.5)" xlink:href="#STIXGeneral-Regular-65"/>
     <use transform="translate(538.9)" xlink:href="#STIXGeneral-Regular-20"/>
     <use transform="translate(563.9)" xlink:href="#STIXGeneral-Regular-e0"/>
     <use transform="translate(608.3)" xlink:href="#STIXGeneral-Regular-73"/>
     <use transform="translate(647.2)" xlink:href="#STIXGeneral-Regular-20"/>
     <use transform="translate(672.2)" xlink:href="#STIXGeneral-Regular-43"/>
     <use transform="translate(738.9)" xlink:href="#STIXGeneral-Regular-6f"/>
     <use transform="translate(788.9)" xlink:href="#STIXGeneral-Regular-6e"/>
     <use transform="translate(838.9)" xlink:href="#STIXGeneral-Regular-64"/>
     <use transform="translate(888.9)" xlink:href="#STIXGeneral-Regular-69"/>
     <use transform="translate(916.7)" xlink:href="#STIXGeneral-Regular-e7"/>
     <use transform="translate(961.1)" xlink:href="#STIXGeneral-Regular-f5"/>
     <use transform="translate(1011.1)" xlink:href="#STIXGeneral-Regular-65"/>
     <use transform="translate(1055.5)" xlink:href="#STIXGeneral-Regular-73"/>
     <use transform="translate(1094.4)" xlink:href="#STIXGeneral-Regular-20"/>
     <use transform="translate(1119.4)" xlink:href="#STIXGeneral-Regular-49"/>
     <use transform="translate(1152.7)" xlink:href="#STIXGeneral-Regular-6e"/>
     <use transform="translate(1202.7)" xlink:href="#STIXGeneral-Regular-69"/>
     <use transform="translate(1230.5)" xlink:href="#STIXGeneral-Regular-63"/>
     <use transform="translate(1274.9)" xlink:href="#STIXGeneral-Regular-69"/>
     <use transform="translate(1302.7)" xlink:href="#STIXGeneral-Regular-61"/>
     <use transform="translate(1347.1)" xlink:href="#STIXGeneral-Regular-69"/>
     <use transform="translate(1374.9)" xlink:href="#STIXGeneral-Regular-73"/>
     <use transform="translate(1413.8)" xlink:href="#STIXGeneral-Regular-20"/>
     <use transform="translate(1438.8)" xlink:href="#STIXGeneral-Regular-2014"/>
     <use transform="translate(1538.8)" xlink:href="#STIXGeneral-Regular-20"/>
     <use transform="translate(1563.8)" xlink:href="#STIXGeneral-Regular-4d"/>
     <use transform="translate(1652.7)" xlink:href="#STIXGeneral-Regular-61"/>
     <use transform="translate(1697.1)" xlink:href="#STIXGeneral-Regular-70"/>
     <use transform="translate(1747.1)" xlink:href="#STIXGeneral-Regular-61"/>
     <use transform="translate(1791.5)" xlink:href="#STIXGeneral-Regular-20"/>
     <use transform="translate(1816.5)" xlink:href="#STIXGeneral-Regular-64"/>
     <use transform="translate(1866.5)" xlink:href="#STIXGeneral-Regular-65"/>
     <use transform="translate(1910.9)" xlink:href="#STIXGeneral-Regular-20"/>
     <use transform="translate(1935.9)" xlink:href="#STIXGeneral-Regular-48"/>
     <use transform="translate(2008.1)" xlink:href="#STIXGeneral-Regular-e9"/>
     <use transform="translate(2052.5)" xlink:href="#STIXGeneral-Regular-6e"/>
     <use transform="translate(2102.5)" xlink:href="#STIXGeneral-Regular-6f"/>
     <use transform="translate(2152.5)" xlink:href="#STIXGeneral-Regular-6e"/>
    </g>
   </g>
   <g id="legend_1">
    <g id="patch_7">
     <path d="m52.88 229.06h110.33q2.2 0 2.2-2.2v-31.68q0-2.2-2.2-2.2h-110.33q-2.2 0-2.2 2.2v31.68q0 2.2 2.2 2.2z" fill="#fff" opacity=".9" stroke="#ccc"/>
    </g>
    <g id="line2d_25">
     <path d="m55.08 202.03h11 11" fill="none" stroke="#4682b4" stroke-linecap="square" stroke-width="1.2"/>
    </g>
    <g id="text_15">
     <!-- $x^{(1)}[n],\; x_0=0$ -->
     <g transform="translate(85.88 205.88) scale(.11 -.11)">
      <defs>
       <path id="STIXGeneral-Regular-28" transform="scale(.015625)" d="m1946-1030-77-103q-743 423-1153 1165-409 742-409 1581 0 1773 1581 2713l58-102q-653-557-871-1098-217-540-217-1494 0-947 224-1536t864-1126z"/>
       <path id="STIXGeneral-Regular-29" transform="scale(.015625)" d="m186 4224 76 102q730-435 1146-1178 416-742 416-1567 0-1747-1581-2714l-57 103q659 544 873 1084 215 541 215 1508 0 972-215 1558-214 586-873 1104z"/>
       <path id="STIXGeneral-Regular-2c" transform="scale(.015625)" d="m531-902-64 121q531 359 531 685 0 83-89 83-26 0-87-12-60-13-99-13-371 0-371 326 0 166 105 265 106 100 279 100 218 0 365-157t147-400q0-294-195-569-195-276-522-429z"/>
       <path id="STIXGeneral-Regular-3d" transform="scale(.015625)" d="m4077 2048h-3770v422h3770v-422zm0-1280h-3770v422h3770v-422z"/>
      </defs>
      <use transform="translate(0 .40938)" xlink:href="#STIXGeneral-Italic-78"/>
      <use transform="translate(50.573 35.684) scale(.7)" xlink:href="#STIXGeneral-Regular-28"/>
      <use transform="translate(73.883 35.684) scale(.7)" xlink:href="#STIXGeneral-Regular-31"/>
      <use transform="translate(108.88 35.684) scale(.7)" xlink:href="#STIXGeneral-Regular-29"/>
      <use transform="translate(136.6 .40938)" xlink:href="#STIXGeneral-Regular-5b"/>
      <use transform="translate(169.9 .40938)" xlink:href="#STIXGeneral-Italic-6e"/>
      <use transform="translate(219.9 .40938)" xlink:href="#STIXGeneral-Regular-5d"/>
      <use transform="translate(253.2 .40938)" xlink:href="#STIXGeneral-Regular-2c"/>
      <use transform="translate(312.7 .40938)" xlink:href="#STIXGeneral-Italic-78"/>
      <use transform="translate(357.1 -12.819) scale(.7)" xlink:href="#STIXGeneral-Regular-30"/>
      <use transform="translate(410.95 .40938)" xlink:href="#STIXGeneral-Regular-3d"/>
      <use transform="translate(493.89 .40938)" xlink:href="#STIXGeneral-Regular-30"/>
     </g>
    </g>
    <g id="line2d_26">
     <path d="m55.08 218.42h11 11" fill="none" stroke="#ff6347" stroke-linecap="square" stroke-opacity=".85" stroke-width="1.2"/>
    </g>
    <g id="text_16">
     <!-- $x^{(2)}[n],\; x_0=10^{-4}$ -->
     <g transform="translate(85.88 222.27) scale(.11 -.11)">
      <use transform="translate(0 .40938)" xlink:href="#STIXGeneral-Italic-78"/>
      <use transform="translate(50.573 35.684) scale(.7)" xlink:href="#STIXGeneral-Regular-28"/>
      <use transform="translate(73.883 35.684) scale(.7)" xlink:href="#STIXGeneral-Regular-32"/>
      <use transform="translate(108.88 35.684) scale(.7)" xlink:href="#STIXGeneral-Regular-29"/>
      <use transform="translate(136.6 .40938)" xlink:href="#STIXGeneral-Regular-5b"/>
      <use transform="translate(169.9 .40938)" xlink:href="#STIXGeneral-Italic-6e"/>
      <use transform="translate(219.9 .40938)" xlink:href="#STIXGeneral-Regular-5d"/>
      <use transform="translate(253.2 .40938)" xlink:href="#STIXGeneral-Regular-2c"/>
      <use transform="translate(312.7 .40938)" xlink:href="#STIXGeneral-Italic-78"/>
      <use transform="translate(357.1 -12.819) scale(.7)" xlink:href="#STIXGeneral-Regular-30"/>
      <use transform="translate(410.95 .40938)" xlink:href="#STIXGeneral-Regular-3d"/>
      <use transform="translate(493.89 .40938)" xlink:href="#STIXGeneral-Regular-31"/>
      <use transform="translate(543.89 .40938)" xlink:href="#STIXGeneral-Regular-30"/>
      <use transform="translate(595.43 35.684) scale(.7)" xlink:href="#STIXGeneral-Regular-2212"/>
      <use transform="translate(643.38 35.684) scale(.7)" xlink:href="#STIXGeneral-Regular-34"/>
     </g>
    </g>
   </g>
  </g>
 </g>
 <defs>
  <clipPath id="pc104bc813b">
   <rect x="45.18" y="18.479" width="578.34" height="216.08"/>
  </clipPath>
 </defs>
</svg>
